<mxfile host="app.diagrams.net" modified="2020-09-18T08:41:33.258Z" agent="5.0 (Macintosh; Intel Mac OS X 11_0) AppleWebKit/605.1.15 (KHTML, like Gecko) Version/14.0 Safari/605.1.15" etag="Dipn1EgpkKJSDbxtVwQu" version="13.7.3" type="github">
  <diagram id="znKaH34Bk-L-76sYNRP6" name="Page-1">
    <mxGraphModel dx="946" dy="522" grid="1" gridSize="10" guides="1" tooltips="1" connect="1" arrows="1" fold="1" page="1" pageScale="1" pageWidth="827" pageHeight="1169" math="0" shadow="0">
      <root>
        <mxCell id="0" />
        <mxCell id="1" parent="0" />
        <mxCell id="9IceqnqwKDW5tyMt8_ix-1" value="Circle" style="swimlane;fontStyle=1;align=center;verticalAlign=top;childLayout=stackLayout;horizontal=1;startSize=26;horizontalStack=0;resizeParent=1;resizeParentMax=0;resizeLast=0;collapsible=1;marginBottom=0;" vertex="1" parent="1">
          <mxGeometry x="70" y="70" width="270" height="260" as="geometry" />
        </mxCell>
        <mxCell id="9IceqnqwKDW5tyMt8_ix-2" value="-radius:int&#xa;-xPos:int&#xa;-yPos:int&#xa;-lenght:double" style="text;strokeColor=none;fillColor=none;align=left;verticalAlign=top;spacingLeft=4;spacingRight=4;overflow=hidden;rotatable=0;points=[[0,0.5],[1,0.5]];portConstraint=eastwest;" vertex="1" parent="9IceqnqwKDW5tyMt8_ix-1">
          <mxGeometry y="26" width="270" height="64" as="geometry" />
        </mxCell>
        <mxCell id="9IceqnqwKDW5tyMt8_ix-3" value="" style="line;strokeWidth=1;fillColor=none;align=left;verticalAlign=middle;spacingTop=-1;spacingLeft=3;spacingRight=3;rotatable=0;labelPosition=right;points=[];portConstraint=eastwest;" vertex="1" parent="9IceqnqwKDW5tyMt8_ix-1">
          <mxGeometry y="90" width="270" height="8" as="geometry" />
        </mxCell>
        <mxCell id="9IceqnqwKDW5tyMt8_ix-4" value="+Circle(radius:int, xPos:int, yPos:int)&#xa;+getRadius():int&#xa;+getxPos():int&#xa;+getLenght():double&#xa;+setxPos(xPos:int):void&#xa;+getyPos():int&#xa;+setyPos(yPos:int):void&#xa;+getSpace():double&#xa;+toString():String&#xa;+printCircle():void&#xa;+calcLength():void" style="text;strokeColor=none;fillColor=none;align=left;verticalAlign=top;spacingLeft=4;spacingRight=4;overflow=hidden;rotatable=0;points=[[0,0.5],[1,0.5]];portConstraint=eastwest;" vertex="1" parent="9IceqnqwKDW5tyMt8_ix-1">
          <mxGeometry y="98" width="270" height="162" as="geometry" />
        </mxCell>
      </root>
    </mxGraphModel>
  </diagram>
</mxfile>
